# xmcd
# 
# Track frame offsets:
#     150
#     13100
#     21965
#     31430
#     41540
#     51885
#     64100
#     73975
#     82750
#     98360
#     107560
#     118480
#     126165
#     138585
#     150425
#     161885
#     172890
#     185455
#     193585
#     206260
#     213495
#     224400
#     231700
#     241800
#     254120
#     270745
#     279990
#     288240
#     303590
#     312925
# 
# Disc length: 4299
# 
# Revision: 3
# Processed by: cddbd v1.5.2PL0 Copyright (c) Steve Scherf et al.
# Submitted via: fre:ac v1.0.17
# 
DISCID=bf10c91e
DTITLE=Various Artist - 30 Sucessos Originais em 30 Anos de Bossa Nova
DYEAR=1996
DGENRE=Bossanova
TTITLE0=Vinicius - Apêlo
TTITLE1=Sansa trio - Minha Namorada
TTITLE2=Alaide Costa - Onde está você
TTITLE3=Luiz Chavez - Influência do Jazz
TTITLE4=Dick Farney - Este seu olhar
TTITLE5=Torquinho - Deixa
TTITLE6=Maricene Costa - Bossa na praia
TTITLE7=Tenorio - Inútil Paisagem
TTITLE8=Geraldo Vandré - Samba em Prelúdio
TTITLE9=Maysa - Se todos fossem iguais a você
TTITLE10=Sambalanco trio - Naña
TTITLE11=Walter Santos - Rapaz de Bem
TTITLE12=Edu Lobo and Yvette - Aleluia
TTITLE13=Octeto de Cesar Camargo Mariano - Desafinado
TTITLE14=Chico Buarque and Odete Lara - Noite dos Namorados
TTITLE15=Elis Regina and Marco Valle - Terra de Ninguém
TTITLE16=Sambossa 5 - Corcovado
TTITLE17=Maria Creuza - Chega de Saudade
TTITLE18=Paulinho Nogueira - O Barquinho
TTITLE19=Geraldo Cunha - Vivo Sonhando
TTITLE20=Manfredo fest - Nós e o mar
TTITLE21=Antonio Carlos Jobim - Só tinha de ser com você
TTITLE22=Quarteto de Saba - Céu e Mar
TTITLE23=Agostinho de Santo and Antonio Carlos Jobim - A Felicidade
TTITLE24=Zimbo trio - Garota de Ipanema
TTITLE25=Geraldo Vandré - Quem quiser encontrar o amor
TTITLE26=Wanda - Tristeza de nós dois
TTITLE27=Oscar Castro Neves - Antes e depois
TTITLE28=Os Bossais - Marcha da Quarta Feira de Cinzas
TTITLE29=Jorge Ben - Chove Chuva
EXTD=cd bresilien
EXTT0=Vin cius, Toquinho e Maria Bet nia\n
EXTT1=Sansa Trio\n
EXTT2=Alaide Costa\n
EXTT3=Luiz Chaves e seu Conjunto\n
EXTT4=Dick Farney\n
EXTT5=Toquinho\n
EXTT6=Maricene Costa\n
EXTT7=Ten rio Jr. e seu Conjunto\n
EXTT8=Geraldo Vandr  com Ana L cia\n
EXTT9=Maysa\n
EXTT10=Sambalan o Trio\n
EXTT11=Walter Santos\n
EXTT12=Ed  Lobo e Yvete\n
EXTT13=Octeto de Cesar Camargo Mariano\n
EXTT14=Chico Buarque de Holanda, Odete Lara \ne MPB-4\n
EXTT15=Elis Regina e Marcos Valle\n
EXTT16=Sambossa 5\n
EXTT17=Maria Creuza\n
EXTT18=Paulinho Nogueira\n
EXTT19=Geraldo Cunha\n
EXTT20=Manfredo Fest\n
EXTT21=Ant nio Carlos Jobim\n
EXTT22=Quarteto de Sab \n
EXTT23=Agostinho dos Santos e ao piano Ant nio \nCarlos Jobim\n
EXTT24=Zimbo Trio\n
EXTT25=Geraldo Vandr \n
EXTT26=Wanda\n
EXTT27=Oscar Castro Neves\n
EXTT28=Os Bossais\n
EXTT29=Jorge Ben\n
PLAYORDER=
